solid OpenSCAD_Model
  facet normal 0.984808 0.173648 0
    outer loop
      vertex 5.7 0 5
      vertex 5.35625 1.94951 0
      vertex 5.35625 1.94951 5
    endloop
  endfacet
  facet normal 0.984808 0.173648 0
    outer loop
      vertex 5.35625 1.94951 0
      vertex 5.7 0 5
      vertex 5.7 0 0
    endloop
  endfacet
  facet normal -0.984808 0.173648 0
    outer loop
      vertex -5.7 0 0
      vertex -5.35625 1.94951 5
      vertex -5.35625 1.94951 0
    endloop
  endfacet
  facet normal -0.984808 0.173648 0
    outer loop
      vertex -5.35625 1.94951 5
      vertex -5.7 0 0
      vertex -5.7 0 5
    endloop
  endfacet
  facet normal 0 1 -0
    outer loop
      vertex 0.989794 5.6134 0
      vertex -0.989794 5.6134 5
      vertex 0.989794 5.6134 5
    endloop
  endfacet
  facet normal 0 1 0
    outer loop
      vertex -0.989794 5.6134 5
      vertex 0.989794 5.6134 0
      vertex -0.989794 5.6134 0
    endloop
  endfacet
  facet normal 0 -1 0
    outer loop
      vertex -0.989794 -5.6134 0
      vertex 0.989794 -5.6134 5
      vertex -0.989794 -5.6134 5
    endloop
  endfacet
  facet normal 0 -1 -0
    outer loop
      vertex 0.989794 -5.6134 5
      vertex -0.989794 -5.6134 0
      vertex 0.989794 -5.6134 0
    endloop
  endfacet
  facet normal 0.34202 -0.939693 0
    outer loop
      vertex 0.989794 -5.6134 0
      vertex 2.85 -4.93634 5
      vertex 0.989794 -5.6134 5
    endloop
  endfacet
  facet normal 0.34202 -0.939693 0
    outer loop
      vertex 2.85 -4.93634 5
      vertex 0.989794 -5.6134 0
      vertex 2.85 -4.93634 0
    endloop
  endfacet
  facet normal 0.642787 0.766045 -0
    outer loop
      vertex 4.36645 3.66389 0
      vertex 2.85 4.93634 5
      vertex 4.36645 3.66389 5
    endloop
  endfacet
  facet normal 0.642787 0.766045 0
    outer loop
      vertex 2.85 4.93634 5
      vertex 4.36645 3.66389 0
      vertex 2.85 4.93634 0
    endloop
  endfacet
  facet normal 0.866025 0.5 0
    outer loop
      vertex 5.35625 1.94951 5
      vertex 4.36645 3.66389 0
      vertex 4.36645 3.66389 5
    endloop
  endfacet
  facet normal 0.866025 0.5 0
    outer loop
      vertex 4.36645 3.66389 0
      vertex 5.35625 1.94951 5
      vertex 5.35625 1.94951 0
    endloop
  endfacet
  facet normal 0.34202 0.939693 -0
    outer loop
      vertex 2.85 4.93634 0
      vertex 0.989794 5.6134 5
      vertex 2.85 4.93634 5
    endloop
  endfacet
  facet normal 0.34202 0.939693 0
    outer loop
      vertex 0.989794 5.6134 5
      vertex 2.85 4.93634 0
      vertex 0.989794 5.6134 0
    endloop
  endfacet
  facet normal -0.642787 0.766045 0
    outer loop
      vertex -2.85 4.93634 0
      vertex -4.36645 3.66389 5
      vertex -2.85 4.93634 5
    endloop
  endfacet
  facet normal -0.642787 0.766045 0
    outer loop
      vertex -4.36645 3.66389 5
      vertex -2.85 4.93634 0
      vertex -4.36645 3.66389 0
    endloop
  endfacet
  facet normal -0.866025 0.5 0
    outer loop
      vertex -5.35625 1.94951 0
      vertex -4.36645 3.66389 5
      vertex -4.36645 3.66389 0
    endloop
  endfacet
  facet normal -0.866025 0.5 0
    outer loop
      vertex -4.36645 3.66389 5
      vertex -5.35625 1.94951 0
      vertex -5.35625 1.94951 5
    endloop
  endfacet
  facet normal 0 0 1
    outer loop
      vertex 4.7 0 5
      vertex 5.7 0 5
      vertex 5.35625 1.94951 5
    endloop
  endfacet
  facet normal 0 0 1
    outer loop
      vertex 5.7 0 5
      vertex 4.7 0 5
      vertex 5.35625 -1.94951 5
    endloop
  endfacet
  facet normal 0 0 1
    outer loop
      vertex 4.36645 3.66389 5
      vertex 4.7 0 5
      vertex 5.35625 1.94951 5
    endloop
  endfacet
  facet normal -0 0 1
    outer loop
      vertex 2.35 4.07032 5
      vertex 4.36645 3.66389 5
      vertex 2.85 4.93634 5
    endloop
  endfacet
  facet normal 0 0 1
    outer loop
      vertex 4.36645 3.66389 5
      vertex 2.35 4.07032 5
      vertex 4.7 0 5
    endloop
  endfacet
  facet normal 0 0 1
    outer loop
      vertex 0.989794 5.6134 5
      vertex 2.35 4.07032 5
      vertex 2.85 4.93634 5
    endloop
  endfacet
  facet normal -0 0 1
    outer loop
      vertex -0.989794 5.6134 5
      vertex 2.35 4.07032 5
      vertex 0.989794 5.6134 5
    endloop
  endfacet
  facet normal 0 0 1
    outer loop
      vertex -0.989794 5.6134 5
      vertex -2.35 4.07032 5
      vertex 2.35 4.07032 5
    endloop
  endfacet
  facet normal -0 0 1
    outer loop
      vertex -2.85 4.93634 5
      vertex -2.35 4.07032 5
      vertex -0.989794 5.6134 5
    endloop
  endfacet
  facet normal 0 0 1
    outer loop
      vertex -4.36645 3.66389 5
      vertex -2.35 4.07032 5
      vertex -2.85 4.93634 5
    endloop
  endfacet
  facet normal -0 0 1
    outer loop
      vertex -4.36645 3.66389 5
      vertex -4.7 0 5
      vertex -2.35 4.07032 5
    endloop
  endfacet
  facet normal 0 -0 1
    outer loop
      vertex -4.7 0 5
      vertex -4.36645 3.66389 5
      vertex -5.35625 1.94951 5
    endloop
  endfacet
  facet normal 0 0 1
    outer loop
      vertex 4.7 0 5
      vertex 4.36645 -3.66389 5
      vertex 5.35625 -1.94951 5
    endloop
  endfacet
  facet normal 0 0 1
    outer loop
      vertex 2.35 -4.07032 5
      vertex 4.36645 -3.66389 5
      vertex 4.7 0 5
    endloop
  endfacet
  facet normal 0 0 1
    outer loop
      vertex 4.36645 -3.66389 5
      vertex 2.35 -4.07032 5
      vertex 2.85 -4.93634 5
    endloop
  endfacet
  facet normal 0 0 1
    outer loop
      vertex 2.35 -4.07032 5
      vertex 0.989794 -5.6134 5
      vertex 2.85 -4.93634 5
    endloop
  endfacet
  facet normal 0 0 1
    outer loop
      vertex 2.35 -4.07032 5
      vertex -0.989794 -5.6134 5
      vertex 0.989794 -5.6134 5
    endloop
  endfacet
  facet normal -0 0 1
    outer loop
      vertex -2.35 -4.07032 5
      vertex -0.989794 -5.6134 5
      vertex 2.35 -4.07032 5
    endloop
  endfacet
  facet normal 0 0 1
    outer loop
      vertex -2.35 -4.07032 5
      vertex -2.85 -4.93634 5
      vertex -0.989794 -5.6134 5
    endloop
  endfacet
  facet normal 0 0 1
    outer loop
      vertex -2.35 -4.07032 5
      vertex -4.36645 -3.66389 5
      vertex -2.85 -4.93634 5
    endloop
  endfacet
  facet normal 0 0 1
    outer loop
      vertex -4.7 0 5
      vertex -4.36645 -3.66389 5
      vertex -2.35 -4.07032 5
    endloop
  endfacet
  facet normal 0 0 1
    outer loop
      vertex -5.7 0 5
      vertex -4.7 0 5
      vertex -5.35625 1.94951 5
    endloop
  endfacet
  facet normal 0 0 1
    outer loop
      vertex -4.7 0 5
      vertex -5.35625 -1.94951 5
      vertex -4.36645 -3.66389 5
    endloop
  endfacet
  facet normal 0 0 1
    outer loop
      vertex -4.7 0 5
      vertex -5.7 0 5
      vertex -5.35625 -1.94951 5
    endloop
  endfacet
  facet normal -0.34202 0.939693 0
    outer loop
      vertex -0.989794 5.6134 0
      vertex -2.85 4.93634 5
      vertex -0.989794 5.6134 5
    endloop
  endfacet
  facet normal -0.34202 0.939693 0
    outer loop
      vertex -2.85 4.93634 5
      vertex -0.989794 5.6134 0
      vertex -2.85 4.93634 0
    endloop
  endfacet
  facet normal 0 0 -1
    outer loop
      vertex 4.7 0 0
      vertex 5.7 0 0
      vertex 5.35625 -1.94951 0
    endloop
  endfacet
  facet normal 0 0 -1
    outer loop
      vertex 5.7 0 0
      vertex 4.7 0 0
      vertex 5.35625 1.94951 0
    endloop
  endfacet
  facet normal 0 0 -1
    outer loop
      vertex 4.36645 -3.66389 0
      vertex 4.7 0 0
      vertex 5.35625 -1.94951 0
    endloop
  endfacet
  facet normal 0 0 -1
    outer loop
      vertex 2.35 -4.07032 0
      vertex 4.36645 -3.66389 0
      vertex 2.85 -4.93634 0
    endloop
  endfacet
  facet normal -0 0 -1
    outer loop
      vertex 4.36645 -3.66389 0
      vertex 2.35 -4.07032 0
      vertex 4.7 0 0
    endloop
  endfacet
  facet normal 0 0 -1
    outer loop
      vertex 0.989794 -5.6134 0
      vertex 2.35 -4.07032 0
      vertex 2.85 -4.93634 0
    endloop
  endfacet
  facet normal 0 0 -1
    outer loop
      vertex -0.989794 -5.6134 0
      vertex 2.35 -4.07032 0
      vertex 0.989794 -5.6134 0
    endloop
  endfacet
  facet normal 0 0 -1
    outer loop
      vertex -0.989794 -5.6134 0
      vertex -2.35 -4.07032 0
      vertex 2.35 -4.07032 0
    endloop
  endfacet
  facet normal 0 0 -1
    outer loop
      vertex -2.85 -4.93634 0
      vertex -2.35 -4.07032 0
      vertex -0.989794 -5.6134 0
    endloop
  endfacet
  facet normal 0 0 -1
    outer loop
      vertex -4.36645 -3.66389 0
      vertex -2.35 -4.07032 0
      vertex -2.85 -4.93634 0
    endloop
  endfacet
  facet normal 0 0 -1
    outer loop
      vertex -4.36645 -3.66389 0
      vertex -4.7 0 0
      vertex -2.35 -4.07032 0
    endloop
  endfacet
  facet normal 0 -0 -1
    outer loop
      vertex -4.7 0 0
      vertex -4.36645 -3.66389 0
      vertex -5.35625 -1.94951 0
    endloop
  endfacet
  facet normal 0 0 -1
    outer loop
      vertex 4.7 0 0
      vertex 4.36645 3.66389 0
      vertex 5.35625 1.94951 0
    endloop
  endfacet
  facet normal 0 0 -1
    outer loop
      vertex 2.35 4.07032 0
      vertex 4.36645 3.66389 0
      vertex 4.7 0 0
    endloop
  endfacet
  facet normal 0 0 -1
    outer loop
      vertex 4.36645 3.66389 0
      vertex 2.35 4.07032 0
      vertex 2.85 4.93634 0
    endloop
  endfacet
  facet normal 0 0 -1
    outer loop
      vertex 2.35 4.07032 0
      vertex 0.989794 5.6134 0
      vertex 2.85 4.93634 0
    endloop
  endfacet
  facet normal 0 0 -1
    outer loop
      vertex 2.35 4.07032 0
      vertex -0.989794 5.6134 0
      vertex 0.989794 5.6134 0
    endloop
  endfacet
  facet normal 0 0 -1
    outer loop
      vertex -2.35 4.07032 0
      vertex -0.989794 5.6134 0
      vertex 2.35 4.07032 0
    endloop
  endfacet
  facet normal 0 0 -1
    outer loop
      vertex -2.35 4.07032 0
      vertex -2.85 4.93634 0
      vertex -0.989794 5.6134 0
    endloop
  endfacet
  facet normal -0 0 -1
    outer loop
      vertex -2.35 4.07032 0
      vertex -4.36645 3.66389 0
      vertex -2.85 4.93634 0
    endloop
  endfacet
  facet normal 0 0 -1
    outer loop
      vertex -4.7 0 0
      vertex -4.36645 3.66389 0
      vertex -2.35 4.07032 0
    endloop
  endfacet
  facet normal 0 0 -1
    outer loop
      vertex -5.7 0 0
      vertex -4.7 0 0
      vertex -5.35625 -1.94951 0
    endloop
  endfacet
  facet normal 0 0 -1
    outer loop
      vertex -4.7 0 0
      vertex -5.35625 1.94951 0
      vertex -4.36645 3.66389 0
    endloop
  endfacet
  facet normal 0 0 -1
    outer loop
      vertex -4.7 0 0
      vertex -5.7 0 0
      vertex -5.35625 1.94951 0
    endloop
  endfacet
  facet normal 0.866025 -0.5 0
    outer loop
      vertex 4.36645 -3.66389 5
      vertex 5.35625 -1.94951 0
      vertex 5.35625 -1.94951 5
    endloop
  endfacet
  facet normal 0.866025 -0.5 0
    outer loop
      vertex 5.35625 -1.94951 0
      vertex 4.36645 -3.66389 5
      vertex 4.36645 -3.66389 0
    endloop
  endfacet
  facet normal 0.984808 -0.173648 0
    outer loop
      vertex 5.35625 -1.94951 5
      vertex 5.7 0 0
      vertex 5.7 0 5
    endloop
  endfacet
  facet normal 0.984808 -0.173648 0
    outer loop
      vertex 5.7 0 0
      vertex 5.35625 -1.94951 5
      vertex 5.35625 -1.94951 0
    endloop
  endfacet
  facet normal -0.984808 -0.173648 0
    outer loop
      vertex -5.35625 -1.94951 0
      vertex -5.7 0 5
      vertex -5.7 0 0
    endloop
  endfacet
  facet normal -0.984808 -0.173648 0
    outer loop
      vertex -5.7 0 5
      vertex -5.35625 -1.94951 0
      vertex -5.35625 -1.94951 5
    endloop
  endfacet
  facet normal 0.642787 -0.766045 0
    outer loop
      vertex 2.85 -4.93634 0
      vertex 4.36645 -3.66389 5
      vertex 2.85 -4.93634 5
    endloop
  endfacet
  facet normal 0.642787 -0.766045 0
    outer loop
      vertex 4.36645 -3.66389 5
      vertex 2.85 -4.93634 0
      vertex 4.36645 -3.66389 0
    endloop
  endfacet
  facet normal -0.642787 -0.766045 0
    outer loop
      vertex -4.36645 -3.66389 0
      vertex -2.85 -4.93634 5
      vertex -4.36645 -3.66389 5
    endloop
  endfacet
  facet normal -0.642787 -0.766045 -0
    outer loop
      vertex -2.85 -4.93634 5
      vertex -4.36645 -3.66389 0
      vertex -2.85 -4.93634 0
    endloop
  endfacet
  facet normal -0.866025 -0.5 0
    outer loop
      vertex -4.36645 -3.66389 0
      vertex -5.35625 -1.94951 5
      vertex -5.35625 -1.94951 0
    endloop
  endfacet
  facet normal -0.866025 -0.5 0
    outer loop
      vertex -5.35625 -1.94951 5
      vertex -4.36645 -3.66389 0
      vertex -4.36645 -3.66389 5
    endloop
  endfacet
  facet normal -0.34202 -0.939693 0
    outer loop
      vertex -2.85 -4.93634 0
      vertex -0.989794 -5.6134 5
      vertex -2.85 -4.93634 5
    endloop
  endfacet
  facet normal -0.34202 -0.939693 -0
    outer loop
      vertex -0.989794 -5.6134 5
      vertex -2.85 -4.93634 0
      vertex -0.989794 -5.6134 0
    endloop
  endfacet
  facet normal -0.866025 -0.5 0
    outer loop
      vertex 4.7 0 0
      vertex 2.35 4.07032 5
      vertex 2.35 4.07032 0
    endloop
  endfacet
  facet normal -0.866025 -0.5 0
    outer loop
      vertex 2.35 4.07032 5
      vertex 4.7 0 0
      vertex 4.7 0 5
    endloop
  endfacet
  facet normal 0.866025 -0.5 0
    outer loop
      vertex -4.7 0 5
      vertex -2.35 4.07032 0
      vertex -2.35 4.07032 5
    endloop
  endfacet
  facet normal 0.866025 -0.5 0
    outer loop
      vertex -2.35 4.07032 0
      vertex -4.7 0 5
      vertex -4.7 0 0
    endloop
  endfacet
  facet normal 0 -1 0
    outer loop
      vertex -2.35 4.07032 0
      vertex 2.35 4.07032 5
      vertex -2.35 4.07032 5
    endloop
  endfacet
  facet normal 0 -1 -0
    outer loop
      vertex 2.35 4.07032 5
      vertex -2.35 4.07032 0
      vertex 2.35 4.07032 0
    endloop
  endfacet
  facet normal 0.866025 0.5 0
    outer loop
      vertex -2.35 -4.07032 5
      vertex -4.7 0 0
      vertex -4.7 0 5
    endloop
  endfacet
  facet normal 0.866025 0.5 0
    outer loop
      vertex -4.7 0 0
      vertex -2.35 -4.07032 5
      vertex -2.35 -4.07032 0
    endloop
  endfacet
  facet normal 0 1 -0
    outer loop
      vertex 2.35 -4.07032 0
      vertex -2.35 -4.07032 5
      vertex 2.35 -4.07032 5
    endloop
  endfacet
  facet normal 0 1 0
    outer loop
      vertex -2.35 -4.07032 5
      vertex 2.35 -4.07032 0
      vertex -2.35 -4.07032 0
    endloop
  endfacet
  facet normal -0.866025 0.5 0
    outer loop
      vertex 2.35 -4.07032 0
      vertex 4.7 0 5
      vertex 4.7 0 0
    endloop
  endfacet
  facet normal -0.866025 0.5 0
    outer loop
      vertex 4.7 0 5
      vertex 2.35 -4.07032 0
      vertex 2.35 -4.07032 5
    endloop
  endfacet
endsolid OpenSCAD_Model
