solid OpenSCAD_Model
  facet normal -0.984808 -0.173648 0
    outer loop
      vertex -2.05212 -5.63815 0
      vertex -2.21044 -4.7403 5
      vertex -2.21044 -4.7403 0
    endloop
  endfacet
  facet normal -0.984808 -0.173648 0
    outer loop
      vertex -2.21044 -4.7403 5
      vertex -2.05212 -5.63815 0
      vertex -2.05212 -5.63815 5
    endloop
  endfacet
  facet normal -0.984808 -0.173648 0
    outer loop
      vertex -3.69841 3.69841 0
      vertex -3.85672 4.59627 5
      vertex -3.85672 4.59627 0
    endloop
  endfacet
  facet normal -0.984808 -0.173648 0
    outer loop
      vertex -3.85672 4.59627 5
      vertex -3.69841 3.69841 0
      vertex -3.69841 3.69841 5
    endloop
  endfacet
  facet normal 0.34202 0.939693 -0
    outer loop
      vertex 5.90885 1.04189 0
      vertex 5.05212 1.35371 5
      vertex 5.90885 1.04189 5
    endloop
  endfacet
  facet normal 0.34202 0.939693 0
    outer loop
      vertex 5.05212 1.35371 5
      vertex 5.90885 1.04189 0
      vertex 5.05212 1.35371 0
    endloop
  endfacet
  facet normal 0.34202 0.939693 -0
    outer loop
      vertex -3 4.28444 0
      vertex -3.85672 4.59627 5
      vertex -3 4.28444 5
    endloop
  endfacet
  facet normal 0.34202 0.939693 0
    outer loop
      vertex -3.85672 4.59627 5
      vertex -3 4.28444 0
      vertex -3.85672 4.59627 0
    endloop
  endfacet
  facet normal 0.642788 -0.766044 0
    outer loop
      vertex 5.21044 0.455854 0
      vertex 5.90885 1.04189 5
      vertex 5.21044 0.455854 5
    endloop
  endfacet
  facet normal 0.642788 -0.766044 0
    outer loop
      vertex 5.90885 1.04189 5
      vertex 5.21044 0.455854 0
      vertex 5.90885 1.04189 0
    endloop
  endfacet
  facet normal 0.642788 -0.766045 0
    outer loop
      vertex -2.05212 -5.63815 0
      vertex -1.35371 -5.05212 5
      vertex -2.05212 -5.63815 5
    endloop
  endfacet
  facet normal 0.642788 -0.766045 0
    outer loop
      vertex -1.35371 -5.05212 5
      vertex -2.05212 -5.63815 0
      vertex -1.35371 -5.05212 0
    endloop
  endfacet
  facet normal 0 0 1
    outer loop
      vertex 3.85672 4.59627 5
      vertex 3 4.28444 5
      vertex 3.69841 3.69841 5
    endloop
  endfacet
  facet normal 0 0 1
    outer loop
      vertex 4.59627 3.85672 5
      vertex 3.69841 3.69841 5
      vertex 4.28444 3 5
    endloop
  endfacet
  facet normal 0 0 1
    outer loop
      vertex 5.05212 -1.35371 5
      vertex 4.7 0 5
      vertex 4.7403 -2.21044 5
    endloop
  endfacet
  facet normal -0 0 1
    outer loop
      vertex 4.28444 3 5
      vertex 4.7403 2.21044 5
      vertex 5.19615 3 5
    endloop
  endfacet
  facet normal 0 0 1
    outer loop
      vertex 4.28444 3 5
      vertex 4.7 0 5
      vertex 4.7403 2.21044 5
    endloop
  endfacet
  facet normal 0 0 1
    outer loop
      vertex 2.35 4.07032 5
      vertex 4.28444 3 5
      vertex 3.69841 3.69841 5
    endloop
  endfacet
  facet normal -0 0 1
    outer loop
      vertex 2.35 4.07032 5
      vertex 3.69841 3.69841 5
      vertex 3 4.28444 5
    endloop
  endfacet
  facet normal 0 0 1
    outer loop
      vertex 4.28444 3 5
      vertex 2.35 4.07032 5
      vertex 4.7 0 5
    endloop
  endfacet
  facet normal 0 0 1
    outer loop
      vertex 4.7 0 5
      vertex 5.05212 1.35371 5
      vertex 4.7403 2.21044 5
    endloop
  endfacet
  facet normal 0 0 1
    outer loop
      vertex 4.7403 2.21044 5
      vertex 5.05212 1.35371 5
      vertex 5.63815 2.05212 5
    endloop
  endfacet
  facet normal 0 0 1
    outer loop
      vertex 4.7 0 5
      vertex 5.21044 0.455854 5
      vertex 5.05212 1.35371 5
    endloop
  endfacet
  facet normal 0 0 1
    outer loop
      vertex 5.05212 1.35371 5
      vertex 5.21044 0.455854 5
      vertex 5.90885 1.04189 5
    endloop
  endfacet
  facet normal 0 0 1
    outer loop
      vertex 6 0 5
      vertex 5.21044 0.455854 5
      vertex 5.21044 -0.455854 5
    endloop
  endfacet
  facet normal 0 0 1
    outer loop
      vertex 5.21044 -0.455854 5
      vertex 5.05212 -1.35371 5
      vertex 5.90885 -1.04189 5
    endloop
  endfacet
  facet normal 0 0 1
    outer loop
      vertex 5.21044 0.455854 5
      vertex 4.7 0 5
      vertex 5.21044 -0.455854 5
    endloop
  endfacet
  facet normal 0 0 1
    outer loop
      vertex 5.05212 -1.35371 5
      vertex 4.7403 -2.21044 5
      vertex 5.63815 -2.05212 5
    endloop
  endfacet
  facet normal 0 0 1
    outer loop
      vertex 5.21044 -0.455854 5
      vertex 4.7 0 5
      vertex 5.05212 -1.35371 5
    endloop
  endfacet
  facet normal 0 0 1
    outer loop
      vertex 4.7403 -2.21044 5
      vertex 4.28444 -3 5
      vertex 5.19615 -3 5
    endloop
  endfacet
  facet normal 0 0 1
    outer loop
      vertex 4.7 0 5
      vertex 4.28444 -3 5
      vertex 4.7403 -2.21044 5
    endloop
  endfacet
  facet normal 0 0 1
    outer loop
      vertex 2.35 -4.07032 5
      vertex 4.28444 -3 5
      vertex 4.7 0 5
    endloop
  endfacet
  facet normal 0 0 1
    outer loop
      vertex 4.28444 -3 5
      vertex 2.35 -4.07032 5
      vertex 3.69841 -3.69841 5
    endloop
  endfacet
  facet normal 0 0 1
    outer loop
      vertex 3.69841 -3.69841 5
      vertex 2.35 -4.07032 5
      vertex 3 -4.28444 5
    endloop
  endfacet
  facet normal 0 0 1
    outer loop
      vertex 2.21044 -4.7403 5
      vertex 3 -4.28444 5
      vertex 2.35 -4.07032 5
    endloop
  endfacet
  facet normal 0 0 1
    outer loop
      vertex 3 -4.28444 5
      vertex 2.21044 -4.7403 5
      vertex 3 -5.19615 5
    endloop
  endfacet
  facet normal 0 0 1
    outer loop
      vertex 2.21044 -4.7403 5
      vertex 1.35371 -5.05212 5
      vertex 2.05212 -5.63815 5
    endloop
  endfacet
  facet normal 0 0 1
    outer loop
      vertex 2.35 -4.07032 5
      vertex 1.35371 -5.05212 5
      vertex 2.21044 -4.7403 5
    endloop
  endfacet
  facet normal 0 0 1
    outer loop
      vertex 1.35371 -5.05212 5
      vertex 0.455854 -5.21044 5
      vertex 1.04189 -5.90885 5
    endloop
  endfacet
  facet normal 0 0 1
    outer loop
      vertex 2.35 -4.07032 5
      vertex 0.455854 -5.21044 5
      vertex 1.35371 -5.05212 5
    endloop
  endfacet
  facet normal 0 0 1
    outer loop
      vertex 0.455854 -5.21044 5
      vertex -0.455854 -5.21044 5
      vertex 0 -6 5
    endloop
  endfacet
  facet normal 0 0 1
    outer loop
      vertex 2.35 -4.07032 5
      vertex -0.455854 -5.21044 5
      vertex 0.455854 -5.21044 5
    endloop
  endfacet
  facet normal 0 0 1
    outer loop
      vertex -0.455854 -5.21044 5
      vertex -1.35371 -5.05212 5
      vertex -1.04189 -5.90885 5
    endloop
  endfacet
  facet normal -0 0 1
    outer loop
      vertex -2.35 -4.07032 5
      vertex -0.455854 -5.21044 5
      vertex 2.35 -4.07032 5
    endloop
  endfacet
  facet normal 0 0 1
    outer loop
      vertex -1.35371 -5.05212 5
      vertex -2.21044 -4.7403 5
      vertex -2.05212 -5.63815 5
    endloop
  endfacet
  facet normal 0 0 1
    outer loop
      vertex -0.455854 -5.21044 5
      vertex -2.35 -4.07032 5
      vertex -1.35371 -5.05212 5
    endloop
  endfacet
  facet normal 0 0 1
    outer loop
      vertex -1.35371 -5.05212 5
      vertex -2.35 -4.07032 5
      vertex -2.21044 -4.7403 5
    endloop
  endfacet
  facet normal -0 0 1
    outer loop
      vertex -3 -4.28444 5
      vertex -2.21044 -4.7403 5
      vertex -2.35 -4.07032 5
    endloop
  endfacet
  facet normal 0 0 1
    outer loop
      vertex -2.21044 -4.7403 5
      vertex -3 -4.28444 5
      vertex -3 -5.19615 5
    endloop
  endfacet
  facet normal 0 0 1
    outer loop
      vertex 4.59627 -3.85672 5
      vertex 4.28444 -3 5
      vertex 3.69841 -3.69841 5
    endloop
  endfacet
  facet normal 0 0 1
    outer loop
      vertex -5.21044 0.455854 5
      vertex -6 0 5
      vertex -5.21044 -0.455854 5
    endloop
  endfacet
  facet normal 0 0 1
    outer loop
      vertex -5.21044 -0.455854 5
      vertex -4.7 0 5
      vertex -5.21044 0.455854 5
    endloop
  endfacet
  facet normal 0 -0 1
    outer loop
      vertex -5.21044 0.455854 5
      vertex -5.05212 1.35371 5
      vertex -5.90885 1.04189 5
    endloop
  endfacet
  facet normal -0 0 1
    outer loop
      vertex -5.21044 0.455854 5
      vertex -4.7 0 5
      vertex -5.05212 1.35371 5
    endloop
  endfacet
  facet normal 0 -0 1
    outer loop
      vertex -5.05212 1.35371 5
      vertex -4.7403 2.21044 5
      vertex -5.63815 2.05212 5
    endloop
  endfacet
  facet normal 0 0 1
    outer loop
      vertex -3.69841 3.69841 5
      vertex -4.59627 3.85672 5
      vertex -4.28444 3 5
    endloop
  endfacet
  facet normal 0 0 1
    outer loop
      vertex -3 4.28444 5
      vertex -3.85672 4.59627 5
      vertex -3.69841 3.69841 5
    endloop
  endfacet
  facet normal 0 0 1
    outer loop
      vertex -2.35 -4.07032 5
      vertex -3.69841 -3.69841 5
      vertex -3 -4.28444 5
    endloop
  endfacet
  facet normal 0 0 1
    outer loop
      vertex -2.35 -4.07032 5
      vertex -4.28444 -3 5
      vertex -3.69841 -3.69841 5
    endloop
  endfacet
  facet normal 0 0 1
    outer loop
      vertex -4.7 0 5
      vertex -4.28444 -3 5
      vertex -2.35 -4.07032 5
    endloop
  endfacet
  facet normal -0 0 1
    outer loop
      vertex -5.05212 1.35371 5
      vertex -4.7 0 5
      vertex -4.7403 2.21044 5
    endloop
  endfacet
  facet normal -0 0 1
    outer loop
      vertex -4.7403 -2.21044 5
      vertex -4.28444 -3 5
      vertex -4.7 0 5
    endloop
  endfacet
  facet normal -0 0 1
    outer loop
      vertex -5.19615 -3 5
      vertex -4.28444 -3 5
      vertex -4.7403 -2.21044 5
    endloop
  endfacet
  facet normal -0 0 1
    outer loop
      vertex 2.21044 4.7403 5
      vertex 3 4.28444 5
      vertex 3 5.19615 5
    endloop
  endfacet
  facet normal 0 0 1
    outer loop
      vertex 3 4.28444 5
      vertex 2.21044 4.7403 5
      vertex 2.35 4.07032 5
    endloop
  endfacet
  facet normal -0 0 1
    outer loop
      vertex 1.35371 5.05212 5
      vertex 2.21044 4.7403 5
      vertex 2.05212 5.63815 5
    endloop
  endfacet
  facet normal 0 0 1
    outer loop
      vertex 1.35371 5.05212 5
      vertex 2.35 4.07032 5
      vertex 2.21044 4.7403 5
    endloop
  endfacet
  facet normal -0 0 1
    outer loop
      vertex 0.455854 5.21044 5
      vertex 1.35371 5.05212 5
      vertex 1.04189 5.90885 5
    endloop
  endfacet
  facet normal 0 0 1
    outer loop
      vertex 0.455854 5.21044 5
      vertex 2.35 4.07032 5
      vertex 1.35371 5.05212 5
    endloop
  endfacet
  facet normal -0 0 1
    outer loop
      vertex -0.455854 5.21044 5
      vertex 0.455854 5.21044 5
      vertex 0 6 5
    endloop
  endfacet
  facet normal 0 0 1
    outer loop
      vertex -0.455854 5.21044 5
      vertex 2.35 4.07032 5
      vertex 0.455854 5.21044 5
    endloop
  endfacet
  facet normal 0 0 1
    outer loop
      vertex -1.35371 5.05212 5
      vertex -0.455854 5.21044 5
      vertex -1.04189 5.90885 5
    endloop
  endfacet
  facet normal 0 0 1
    outer loop
      vertex -2.35 4.07032 5
      vertex -0.455854 5.21044 5
      vertex -1.35371 5.05212 5
    endloop
  endfacet
  facet normal 0 0 1
    outer loop
      vertex -2.21044 4.7403 5
      vertex -1.35371 5.05212 5
      vertex -2.05212 5.63815 5
    endloop
  endfacet
  facet normal 0 0 1
    outer loop
      vertex -2.35 4.07032 5
      vertex -1.35371 5.05212 5
      vertex -2.21044 4.7403 5
    endloop
  endfacet
  facet normal 0 0 1
    outer loop
      vertex -0.455854 5.21044 5
      vertex -2.35 4.07032 5
      vertex 2.35 4.07032 5
    endloop
  endfacet
  facet normal 0 0 1
    outer loop
      vertex -3 4.28444 5
      vertex -2.21044 4.7403 5
      vertex -3 5.19615 5
    endloop
  endfacet
  facet normal 0 0 1
    outer loop
      vertex -2.21044 4.7403 5
      vertex -3 4.28444 5
      vertex -2.35 4.07032 5
    endloop
  endfacet
  facet normal 0 0 1
    outer loop
      vertex -3.69841 3.69841 5
      vertex -2.35 4.07032 5
      vertex -3 4.28444 5
    endloop
  endfacet
  facet normal 0 0 1
    outer loop
      vertex -4.28444 3 5
      vertex -2.35 4.07032 5
      vertex -3.69841 3.69841 5
    endloop
  endfacet
  facet normal -0 0 1
    outer loop
      vertex -4.28444 3 5
      vertex -4.7 0 5
      vertex -2.35 4.07032 5
    endloop
  endfacet
  facet normal 0 0 1
    outer loop
      vertex -4.28444 3 5
      vertex -4.7403 2.21044 5
      vertex -4.7 0 5
    endloop
  endfacet
  facet normal 0 0 1
    outer loop
      vertex -4.28444 3 5
      vertex -5.19615 3 5
      vertex -4.7403 2.21044 5
    endloop
  endfacet
  facet normal 0 0 1
    outer loop
      vertex 3.85672 -4.59627 5
      vertex 3.69841 -3.69841 5
      vertex 3 -4.28444 5
    endloop
  endfacet
  facet normal 0 0 1
    outer loop
      vertex -3 -4.28444 5
      vertex -3.69841 -3.69841 5
      vertex -3.85672 -4.59627 5
    endloop
  endfacet
  facet normal 0 0 1
    outer loop
      vertex -3.69841 -3.69841 5
      vertex -4.28444 -3 5
      vertex -4.59627 -3.85672 5
    endloop
  endfacet
  facet normal 0 0 1
    outer loop
      vertex -4.7 0 5
      vertex -5.05212 -1.35371 5
      vertex -4.7403 -2.21044 5
    endloop
  endfacet
  facet normal 0 0 1
    outer loop
      vertex -4.7403 -2.21044 5
      vertex -5.05212 -1.35371 5
      vertex -5.63815 -2.05212 5
    endloop
  endfacet
  facet normal 0 0 1
    outer loop
      vertex -4.7 0 5
      vertex -5.21044 -0.455854 5
      vertex -5.05212 -1.35371 5
    endloop
  endfacet
  facet normal 0 0 1
    outer loop
      vertex -5.05212 -1.35371 5
      vertex -5.21044 -0.455854 5
      vertex -5.90885 -1.04189 5
    endloop
  endfacet
  facet normal 0 0 -1
    outer loop
      vertex 3.85672 -4.59627 0
      vertex 3 -4.28444 0
      vertex 3.69841 -3.69841 0
    endloop
  endfacet
  facet normal 0 0 -1
    outer loop
      vertex 4.59627 -3.85672 0
      vertex 3.69841 -3.69841 0
      vertex 4.28444 -3 0
    endloop
  endfacet
  facet normal -0 0 -1
    outer loop
      vertex 5.21044 0.455854 0
      vertex 4.7 0 0
      vertex 5.05212 1.35371 0
    endloop
  endfacet
  facet normal 0 0 -1
    outer loop
      vertex 4.7 0 0
      vertex 5.05212 -1.35371 0
      vertex 4.7403 -2.21044 0
    endloop
  endfacet
  facet normal 0 0 -1
    outer loop
      vertex 4.7403 -2.21044 0
      vertex 5.05212 -1.35371 0
      vertex 5.63815 -2.05212 0
    endloop
  endfacet
  facet normal -0 0 -1
    outer loop
      vertex 5.63815 2.05212 0
      vertex 5.05212 1.35371 0
      vertex 4.7403 2.21044 0
    endloop
  endfacet
  facet normal -0 0 -1
    outer loop
      vertex 5.90885 -1.04189 0
      vertex 5.05212 -1.35371 0
      vertex 5.21044 -0.455854 0
    endloop
  endfacet
  facet normal -0 0 -1
    outer loop
      vertex 6 0 0
      vertex 5.21044 -0.455854 0
      vertex 5.21044 0.455854 0
    endloop
  endfacet
  facet normal 0 0 -1
    outer loop
      vertex 4.7 0 0
      vertex 5.21044 -0.455854 0
      vertex 5.05212 -1.35371 0
    endloop
  endfacet
  facet normal 0 0 -1
    outer loop
      vertex 5.21044 0.455854 0
      vertex 5.05212 1.35371 0
      vertex 5.90885 1.04189 0
    endloop
  endfacet
  facet normal 0 0 -1
    outer loop
      vertex 5.21044 -0.455854 0
      vertex 4.7 0 0
      vertex 5.21044 0.455854 0
    endloop
  endfacet
  facet normal -0 0 -1
    outer loop
      vertex 5.05212 1.35371 0
      vertex 4.7 0 0
      vertex 4.7403 2.21044 0
    endloop
  endfacet
  facet normal 0 0 -1
    outer loop
      vertex 4.7403 2.21044 0
      vertex 4.28444 3 0
      vertex 5.19615 3 0
    endloop
  endfacet
  facet normal 0 0 -1
    outer loop
      vertex 4.7 0 0
      vertex 4.28444 3 0
      vertex 4.7403 2.21044 0
    endloop
  endfacet
  facet normal 0 0 -1
    outer loop
      vertex 2.35 4.07032 0
      vertex 4.28444 3 0
      vertex 4.7 0 0
    endloop
  endfacet
  facet normal 0 0 -1
    outer loop
      vertex 4.28444 3 0
      vertex 2.35 4.07032 0
      vertex 3.69841 3.69841 0
    endloop
  endfacet
  facet normal 0 0 -1
    outer loop
      vertex 3.69841 3.69841 0
      vertex 2.35 4.07032 0
      vertex 3 4.28444 0
    endloop
  endfacet
  facet normal 0 0 -1
    outer loop
      vertex 2.21044 4.7403 0
      vertex 3 4.28444 0
      vertex 2.35 4.07032 0
    endloop
  endfacet
  facet normal 0 0 -1
    outer loop
      vertex 3 4.28444 0
      vertex 2.21044 4.7403 0
      vertex 3 5.19615 0
    endloop
  endfacet
  facet normal 0 0 -1
    outer loop
      vertex 2.21044 4.7403 0
      vertex 1.35371 5.05212 0
      vertex 2.05212 5.63815 0
    endloop
  endfacet
  facet normal 0 0 -1
    outer loop
      vertex 2.35 4.07032 0
      vertex 1.35371 5.05212 0
      vertex 2.21044 4.7403 0
    endloop
  endfacet
  facet normal 0 0 -1
    outer loop
      vertex 1.35371 5.05212 0
      vertex 0.455854 5.21044 0
      vertex 1.04189 5.90885 0
    endloop
  endfacet
  facet normal 0 0 -1
    outer loop
      vertex 2.35 4.07032 0
      vertex 0.455854 5.21044 0
      vertex 1.35371 5.05212 0
    endloop
  endfacet
  facet normal 0 0 -1
    outer loop
      vertex 0.455854 5.21044 0
      vertex -0.455854 5.21044 0
      vertex 0 6 0
    endloop
  endfacet
  facet normal 0 0 -1
    outer loop
      vertex 2.35 4.07032 0
      vertex -0.455854 5.21044 0
      vertex 0.455854 5.21044 0
    endloop
  endfacet
  facet normal -0 0 -1
    outer loop
      vertex -0.455854 5.21044 0
      vertex -1.35371 5.05212 0
      vertex -1.04189 5.90885 0
    endloop
  endfacet
  facet normal 0 0 -1
    outer loop
      vertex -2.35 4.07032 0
      vertex -0.455854 5.21044 0
      vertex 2.35 4.07032 0
    endloop
  endfacet
  facet normal -0 0 -1
    outer loop
      vertex -1.35371 5.05212 0
      vertex -2.21044 4.7403 0
      vertex -2.05212 5.63815 0
    endloop
  endfacet
  facet normal 0 0 -1
    outer loop
      vertex -0.455854 5.21044 0
      vertex -2.35 4.07032 0
      vertex -1.35371 5.05212 0
    endloop
  endfacet
  facet normal 0 0 -1
    outer loop
      vertex -1.35371 5.05212 0
      vertex -2.35 4.07032 0
      vertex -2.21044 4.7403 0
    endloop
  endfacet
  facet normal 0 0 -1
    outer loop
      vertex -3 4.28444 0
      vertex -2.21044 4.7403 0
      vertex -2.35 4.07032 0
    endloop
  endfacet
  facet normal -0 0 -1
    outer loop
      vertex -2.21044 4.7403 0
      vertex -3 4.28444 0
      vertex -3 5.19615 0
    endloop
  endfacet
  facet normal 0 0 -1
    outer loop
      vertex 4.28444 -3 0
      vertex 4.7403 -2.21044 0
      vertex 5.19615 -3 0
    endloop
  endfacet
  facet normal 0 0 -1
    outer loop
      vertex 4.28444 -3 0
      vertex 4.7 0 0
      vertex 4.7403 -2.21044 0
    endloop
  endfacet
  facet normal 0 0 -1
    outer loop
      vertex 2.35 -4.07032 0
      vertex 4.28444 -3 0
      vertex 3.69841 -3.69841 0
    endloop
  endfacet
  facet normal 0 0 -1
    outer loop
      vertex 2.35 -4.07032 0
      vertex 3.69841 -3.69841 0
      vertex 3 -4.28444 0
    endloop
  endfacet
  facet normal -0 0 -1
    outer loop
      vertex 4.28444 -3 0
      vertex 2.35 -4.07032 0
      vertex 4.7 0 0
    endloop
  endfacet
  facet normal 0 0 -1
    outer loop
      vertex 2.21044 -4.7403 0
      vertex 3 -4.28444 0
      vertex 3 -5.19615 0
    endloop
  endfacet
  facet normal 0 0 -1
    outer loop
      vertex 4.59627 3.85672 0
      vertex 4.28444 3 0
      vertex 3.69841 3.69841 0
    endloop
  endfacet
  facet normal 0 0 -1
    outer loop
      vertex 3.85672 4.59627 0
      vertex 3.69841 3.69841 0
      vertex 3 4.28444 0
    endloop
  endfacet
  facet normal 0 0 -1
    outer loop
      vertex -4.7 0 0
      vertex -5.21044 0.455854 0
      vertex -5.05212 1.35371 0
    endloop
  endfacet
  facet normal -0 0 -1
    outer loop
      vertex -4.7 0 0
      vertex -5.21044 -0.455854 0
      vertex -5.21044 0.455854 0
    endloop
  endfacet
  facet normal 0 -0 -1
    outer loop
      vertex -5.21044 -0.455854 0
      vertex -5.05212 -1.35371 0
      vertex -5.90885 -1.04189 0
    endloop
  endfacet
  facet normal 0 0 -1
    outer loop
      vertex -5.21044 -0.455854 0
      vertex -4.7 0 0
      vertex -5.05212 -1.35371 0
    endloop
  endfacet
  facet normal 0 -0 -1
    outer loop
      vertex -5.05212 -1.35371 0
      vertex -4.7403 -2.21044 0
      vertex -5.63815 -2.05212 0
    endloop
  endfacet
  facet normal -0 0 -1
    outer loop
      vertex -3.69841 -3.69841 0
      vertex -4.59627 -3.85672 0
      vertex -4.28444 -3 0
    endloop
  endfacet
  facet normal -0 0 -1
    outer loop
      vertex -3 -4.28444 0
      vertex -3.85672 -4.59627 0
      vertex -3.69841 -3.69841 0
    endloop
  endfacet
  facet normal -0 0 -1
    outer loop
      vertex -2.35 4.07032 0
      vertex -3.69841 3.69841 0
      vertex -3 4.28444 0
    endloop
  endfacet
  facet normal 0 0 -1
    outer loop
      vertex -2.35 4.07032 0
      vertex -4.28444 3 0
      vertex -3.69841 3.69841 0
    endloop
  endfacet
  facet normal 0 0 -1
    outer loop
      vertex -4.7 0 0
      vertex -4.28444 3 0
      vertex -2.35 4.07032 0
    endloop
  endfacet
  facet normal 0 0 -1
    outer loop
      vertex -5.05212 -1.35371 0
      vertex -4.7 0 0
      vertex -4.7403 -2.21044 0
    endloop
  endfacet
  facet normal 0 0 -1
    outer loop
      vertex -4.7403 2.21044 0
      vertex -4.28444 3 0
      vertex -4.7 0 0
    endloop
  endfacet
  facet normal 0 0 -1
    outer loop
      vertex -5.19615 3 0
      vertex -4.28444 3 0
      vertex -4.7403 2.21044 0
    endloop
  endfacet
  facet normal -0 0 -1
    outer loop
      vertex 3 -4.28444 0
      vertex 2.21044 -4.7403 0
      vertex 2.35 -4.07032 0
    endloop
  endfacet
  facet normal 0 0 -1
    outer loop
      vertex 1.35371 -5.05212 0
      vertex 2.21044 -4.7403 0
      vertex 2.05212 -5.63815 0
    endloop
  endfacet
  facet normal 0 0 -1
    outer loop
      vertex 1.35371 -5.05212 0
      vertex 2.35 -4.07032 0
      vertex 2.21044 -4.7403 0
    endloop
  endfacet
  facet normal 0 0 -1
    outer loop
      vertex 0.455854 -5.21044 0
      vertex 1.35371 -5.05212 0
      vertex 1.04189 -5.90885 0
    endloop
  endfacet
  facet normal 0 0 -1
    outer loop
      vertex 0.455854 -5.21044 0
      vertex 2.35 -4.07032 0
      vertex 1.35371 -5.05212 0
    endloop
  endfacet
  facet normal 0 0 -1
    outer loop
      vertex -0.455854 -5.21044 0
      vertex 0.455854 -5.21044 0
      vertex 0 -6 0
    endloop
  endfacet
  facet normal 0 0 -1
    outer loop
      vertex -0.455854 -5.21044 0
      vertex 2.35 -4.07032 0
      vertex 0.455854 -5.21044 0
    endloop
  endfacet
  facet normal 0 0 -1
    outer loop
      vertex -1.35371 -5.05212 0
      vertex -0.455854 -5.21044 0
      vertex -1.04189 -5.90885 0
    endloop
  endfacet
  facet normal 0 0 -1
    outer loop
      vertex -2.35 -4.07032 0
      vertex -0.455854 -5.21044 0
      vertex -1.35371 -5.05212 0
    endloop
  endfacet
  facet normal 0 0 -1
    outer loop
      vertex -2.21044 -4.7403 0
      vertex -1.35371 -5.05212 0
      vertex -2.05212 -5.63815 0
    endloop
  endfacet
  facet normal 0 0 -1
    outer loop
      vertex -2.35 -4.07032 0
      vertex -1.35371 -5.05212 0
      vertex -2.21044 -4.7403 0
    endloop
  endfacet
  facet normal 0 0 -1
    outer loop
      vertex -0.455854 -5.21044 0
      vertex -2.35 -4.07032 0
      vertex 2.35 -4.07032 0
    endloop
  endfacet
  facet normal 0 0 -1
    outer loop
      vertex -3 -4.28444 0
      vertex -2.21044 -4.7403 0
      vertex -3 -5.19615 0
    endloop
  endfacet
  facet normal 0 0 -1
    outer loop
      vertex -2.21044 -4.7403 0
      vertex -3 -4.28444 0
      vertex -2.35 -4.07032 0
    endloop
  endfacet
  facet normal 0 0 -1
    outer loop
      vertex -3.69841 -3.69841 0
      vertex -2.35 -4.07032 0
      vertex -3 -4.28444 0
    endloop
  endfacet
  facet normal 0 0 -1
    outer loop
      vertex -4.28444 -3 0
      vertex -2.35 -4.07032 0
      vertex -3.69841 -3.69841 0
    endloop
  endfacet
  facet normal 0 0 -1
    outer loop
      vertex -4.28444 -3 0
      vertex -4.7 0 0
      vertex -2.35 -4.07032 0
    endloop
  endfacet
  facet normal 0 0 -1
    outer loop
      vertex -4.28444 -3 0
      vertex -4.7403 -2.21044 0
      vertex -4.7 0 0
    endloop
  endfacet
  facet normal 0 0 -1
    outer loop
      vertex -4.28444 -3 0
      vertex -5.19615 -3 0
      vertex -4.7403 -2.21044 0
    endloop
  endfacet
  facet normal -0 0 -1
    outer loop
      vertex -3 4.28444 0
      vertex -3.69841 3.69841 0
      vertex -3.85672 4.59627 0
    endloop
  endfacet
  facet normal -0 0 -1
    outer loop
      vertex -3.69841 3.69841 0
      vertex -4.28444 3 0
      vertex -4.59627 3.85672 0
    endloop
  endfacet
  facet normal 0 0 -1
    outer loop
      vertex -4.7 0 0
      vertex -5.05212 1.35371 0
      vertex -4.7403 2.21044 0
    endloop
  endfacet
  facet normal 0 0 -1
    outer loop
      vertex -4.7403 2.21044 0
      vertex -5.05212 1.35371 0
      vertex -5.63815 2.05212 0
    endloop
  endfacet
  facet normal 0 0 -1
    outer loop
      vertex -5.05212 1.35371 0
      vertex -5.21044 0.455854 0
      vertex -5.90885 1.04189 0
    endloop
  endfacet
  facet normal 0 0 -1
    outer loop
      vertex -5.21044 0.455854 0
      vertex -5.21044 -0.455854 0
      vertex -6 0 0
    endloop
  endfacet
  facet normal -0.939693 -0.34202 0
    outer loop
      vertex -1.04189 -5.90885 0
      vertex -1.35371 -5.05212 5
      vertex -1.35371 -5.05212 0
    endloop
  endfacet
  facet normal -0.939693 -0.34202 0
    outer loop
      vertex -1.35371 -5.05212 5
      vertex -1.04189 -5.90885 0
      vertex -1.04189 -5.90885 5
    endloop
  endfacet
  facet normal -0.939693 -0.34202 0
    outer loop
      vertex -4.28444 3 0
      vertex -4.59627 3.85672 5
      vertex -4.59627 3.85672 0
    endloop
  endfacet
  facet normal -0.939693 -0.34202 0
    outer loop
      vertex -4.59627 3.85672 5
      vertex -4.28444 3 0
      vertex -4.28444 3 5
    endloop
  endfacet
  facet normal 0.173648 0.984808 -0
    outer loop
      vertex 5.63815 2.05212 0
      vertex 4.7403 2.21044 5
      vertex 5.63815 2.05212 5
    endloop
  endfacet
  facet normal 0.173648 0.984808 0
    outer loop
      vertex 4.7403 2.21044 5
      vertex 5.63815 2.05212 0
      vertex 4.7403 2.21044 0
    endloop
  endfacet
  facet normal 0.173648 0.984808 -0
    outer loop
      vertex -3.69841 3.69841 0
      vertex -4.59627 3.85672 5
      vertex -3.69841 3.69841 5
    endloop
  endfacet
  facet normal 0.173648 0.984808 0
    outer loop
      vertex -4.59627 3.85672 5
      vertex -3.69841 3.69841 0
      vertex -4.59627 3.85672 0
    endloop
  endfacet
  facet normal 0.766045 -0.642788 0
    outer loop
      vertex 5.05212 1.35371 5
      vertex 5.63815 2.05212 0
      vertex 5.63815 2.05212 5
    endloop
  endfacet
  facet normal 0.766045 -0.642788 0
    outer loop
      vertex 5.63815 2.05212 0
      vertex 5.05212 1.35371 5
      vertex 5.05212 1.35371 0
    endloop
  endfacet
  facet normal 0.766044 -0.642788 0
    outer loop
      vertex -1.04189 -5.90885 5
      vertex -0.455854 -5.21044 0
      vertex -0.455854 -5.21044 5
    endloop
  endfacet
  facet normal 0.766044 -0.642788 0
    outer loop
      vertex -0.455854 -5.21044 0
      vertex -1.04189 -5.90885 5
      vertex -1.04189 -5.90885 0
    endloop
  endfacet
  facet normal 0 1 -0
    outer loop
      vertex 5.19615 3 0
      vertex 4.28444 3 5
      vertex 5.19615 3 5
    endloop
  endfacet
  facet normal 0 1 0
    outer loop
      vertex 4.28444 3 5
      vertex 5.19615 3 0
      vertex 4.28444 3 0
    endloop
  endfacet
  facet normal 0 1 -0
    outer loop
      vertex -4.28444 3 0
      vertex -5.19615 3 5
      vertex -4.28444 3 5
    endloop
  endfacet
  facet normal 0 1 0
    outer loop
      vertex -5.19615 3 5
      vertex -4.28444 3 0
      vertex -5.19615 3 0
    endloop
  endfacet
  facet normal 0.866025 -0.5 0
    outer loop
      vertex 4.7403 2.21044 5
      vertex 5.19615 3 0
      vertex 5.19615 3 5
    endloop
  endfacet
  facet normal 0.866025 -0.5 0
    outer loop
      vertex 5.19615 3 0
      vertex 4.7403 2.21044 5
      vertex 4.7403 2.21044 0
    endloop
  endfacet
  facet normal 0.866025 -0.5 0
    outer loop
      vertex 0 -6 5
      vertex 0.455854 -5.21044 0
      vertex 0.455854 -5.21044 5
    endloop
  endfacet
  facet normal 0.866025 -0.5 0
    outer loop
      vertex 0.455854 -5.21044 0
      vertex 0 -6 5
      vertex 0 -6 0
    endloop
  endfacet
  facet normal -0.766044 -0.642788 0
    outer loop
      vertex 1.04189 -5.90885 0
      vertex 0.455854 -5.21044 5
      vertex 0.455854 -5.21044 0
    endloop
  endfacet
  facet normal -0.766044 -0.642788 0
    outer loop
      vertex 0.455854 -5.21044 5
      vertex 1.04189 -5.90885 0
      vertex 1.04189 -5.90885 5
    endloop
  endfacet
  facet normal -0.766045 -0.642788 0
    outer loop
      vertex -5.05212 1.35371 0
      vertex -5.63815 2.05212 5
      vertex -5.63815 2.05212 0
    endloop
  endfacet
  facet normal -0.766045 -0.642788 0
    outer loop
      vertex -5.63815 2.05212 5
      vertex -5.05212 1.35371 0
      vertex -5.05212 1.35371 5
    endloop
  endfacet
  facet normal -0.173648 0.984808 0
    outer loop
      vertex 4.59627 3.85672 0
      vertex 3.69841 3.69841 5
      vertex 4.59627 3.85672 5
    endloop
  endfacet
  facet normal -0.173648 0.984808 0
    outer loop
      vertex 3.69841 3.69841 5
      vertex 4.59627 3.85672 0
      vertex 3.69841 3.69841 0
    endloop
  endfacet
  facet normal -0.173648 0.984808 0
    outer loop
      vertex -4.7403 2.21044 0
      vertex -5.63815 2.05212 5
      vertex -4.7403 2.21044 5
    endloop
  endfacet
  facet normal -0.173648 0.984808 0
    outer loop
      vertex -5.63815 2.05212 5
      vertex -4.7403 2.21044 0
      vertex -5.63815 2.05212 0
    endloop
  endfacet
  facet normal 0.939693 -0.34202 0
    outer loop
      vertex 4.28444 3 5
      vertex 4.59627 3.85672 0
      vertex 4.59627 3.85672 5
    endloop
  endfacet
  facet normal 0.939693 -0.34202 0
    outer loop
      vertex 4.59627 3.85672 0
      vertex 4.28444 3 5
      vertex 4.28444 3 0
    endloop
  endfacet
  facet normal 0.939693 -0.34202 0
    outer loop
      vertex 1.04189 -5.90885 5
      vertex 1.35371 -5.05212 0
      vertex 1.35371 -5.05212 5
    endloop
  endfacet
  facet normal 0.939693 -0.34202 0
    outer loop
      vertex 1.35371 -5.05212 0
      vertex 1.04189 -5.90885 5
      vertex 1.04189 -5.90885 0
    endloop
  endfacet
  facet normal -0.642788 -0.766045 0
    outer loop
      vertex 1.35371 -5.05212 0
      vertex 2.05212 -5.63815 5
      vertex 1.35371 -5.05212 5
    endloop
  endfacet
  facet normal -0.642788 -0.766045 -0
    outer loop
      vertex 2.05212 -5.63815 5
      vertex 1.35371 -5.05212 0
      vertex 2.05212 -5.63815 0
    endloop
  endfacet
  facet normal -0.642787 -0.766045 0
    outer loop
      vertex -5.90885 1.04189 0
      vertex -5.21044 0.455854 5
      vertex -5.90885 1.04189 5
    endloop
  endfacet
  facet normal -0.642787 -0.766045 -0
    outer loop
      vertex -5.21044 0.455854 5
      vertex -5.90885 1.04189 0
      vertex -5.21044 0.455854 0
    endloop
  endfacet
  facet normal -0.34202 0.939693 0
    outer loop
      vertex 3.85672 4.59627 0
      vertex 3 4.28444 5
      vertex 3.85672 4.59627 5
    endloop
  endfacet
  facet normal -0.34202 0.939693 0
    outer loop
      vertex 3 4.28444 5
      vertex 3.85672 4.59627 0
      vertex 3 4.28444 0
    endloop
  endfacet
  facet normal -0.34202 0.939693 0
    outer loop
      vertex -5.05212 1.35371 0
      vertex -5.90885 1.04189 5
      vertex -5.05212 1.35371 5
    endloop
  endfacet
  facet normal -0.34202 0.939693 0
    outer loop
      vertex -5.90885 1.04189 5
      vertex -5.05212 1.35371 0
      vertex -5.90885 1.04189 0
    endloop
  endfacet
  facet normal 0.984808 -0.173648 0
    outer loop
      vertex 3.69841 3.69841 5
      vertex 3.85672 4.59627 0
      vertex 3.85672 4.59627 5
    endloop
  endfacet
  facet normal 0.984808 -0.173648 0
    outer loop
      vertex 3.85672 4.59627 0
      vertex 3.69841 3.69841 5
      vertex 3.69841 3.69841 0
    endloop
  endfacet
  facet normal 0.984808 -0.173648 0
    outer loop
      vertex 2.05212 -5.63815 5
      vertex 2.21044 -4.7403 0
      vertex 2.21044 -4.7403 5
    endloop
  endfacet
  facet normal 0.984808 -0.173648 0
    outer loop
      vertex 2.21044 -4.7403 0
      vertex 2.05212 -5.63815 5
      vertex 2.05212 -5.63815 0
    endloop
  endfacet
  facet normal -0.5 -0.866025 0
    outer loop
      vertex -6 0 0
      vertex -5.21044 -0.455854 5
      vertex -6 0 5
    endloop
  endfacet
  facet normal -0.5 -0.866025 -0
    outer loop
      vertex -5.21044 -0.455854 5
      vertex -6 0 0
      vertex -5.21044 -0.455854 0
    endloop
  endfacet
  facet normal -0.5 -0.866025 0
    outer loop
      vertex 2.21044 -4.7403 0
      vertex 3 -5.19615 5
      vertex 2.21044 -4.7403 5
    endloop
  endfacet
  facet normal -0.5 -0.866025 -0
    outer loop
      vertex 3 -5.19615 5
      vertex 2.21044 -4.7403 0
      vertex 3 -5.19615 0
    endloop
  endfacet
  facet normal -0.5 0.866025 0
    outer loop
      vertex 3 5.19615 0
      vertex 2.21044 4.7403 5
      vertex 3 5.19615 5
    endloop
  endfacet
  facet normal -0.5 0.866025 0
    outer loop
      vertex 2.21044 4.7403 5
      vertex 3 5.19615 0
      vertex 2.21044 4.7403 0
    endloop
  endfacet
  facet normal -0.5 0.866025 0
    outer loop
      vertex -5.21044 0.455854 0
      vertex -6 0 5
      vertex -5.21044 0.455854 5
    endloop
  endfacet
  facet normal -0.5 0.866025 0
    outer loop
      vertex -6 0 5
      vertex -5.21044 0.455854 0
      vertex -6 0 0
    endloop
  endfacet
  facet normal -0.34202 -0.939693 0
    outer loop
      vertex 3 -4.28444 0
      vertex 3.85672 -4.59627 5
      vertex 3 -4.28444 5
    endloop
  endfacet
  facet normal -0.34202 -0.939693 -0
    outer loop
      vertex 3.85672 -4.59627 5
      vertex 3 -4.28444 0
      vertex 3.85672 -4.59627 0
    endloop
  endfacet
  facet normal -0.34202 -0.939693 0
    outer loop
      vertex -5.90885 -1.04189 0
      vertex -5.05212 -1.35371 5
      vertex -5.90885 -1.04189 5
    endloop
  endfacet
  facet normal -0.34202 -0.939693 -0
    outer loop
      vertex -5.05212 -1.35371 5
      vertex -5.90885 -1.04189 0
      vertex -5.05212 -1.35371 0
    endloop
  endfacet
  facet normal -0.642788 0.766045 0
    outer loop
      vertex 2.05212 5.63815 0
      vertex 1.35371 5.05212 5
      vertex 2.05212 5.63815 5
    endloop
  endfacet
  facet normal -0.642788 0.766045 0
    outer loop
      vertex 1.35371 5.05212 5
      vertex 2.05212 5.63815 0
      vertex 1.35371 5.05212 0
    endloop
  endfacet
  facet normal -0.642788 0.766044 0
    outer loop
      vertex -5.21044 -0.455854 0
      vertex -5.90885 -1.04189 5
      vertex -5.21044 -0.455854 5
    endloop
  endfacet
  facet normal -0.642788 0.766044 0
    outer loop
      vertex -5.90885 -1.04189 5
      vertex -5.21044 -0.455854 0
      vertex -5.90885 -1.04189 0
    endloop
  endfacet
  facet normal 0.984808 0.173648 0
    outer loop
      vertex 2.21044 4.7403 5
      vertex 2.05212 5.63815 0
      vertex 2.05212 5.63815 5
    endloop
  endfacet
  facet normal 0.984808 0.173648 0
    outer loop
      vertex 2.05212 5.63815 0
      vertex 2.21044 4.7403 5
      vertex 2.21044 4.7403 0
    endloop
  endfacet
  facet normal 0.984808 0.173648 0
    outer loop
      vertex 3.85672 -4.59627 5
      vertex 3.69841 -3.69841 0
      vertex 3.69841 -3.69841 5
    endloop
  endfacet
  facet normal 0.984808 0.173648 0
    outer loop
      vertex 3.69841 -3.69841 0
      vertex 3.85672 -4.59627 5
      vertex 3.85672 -4.59627 0
    endloop
  endfacet
  facet normal -0.173648 -0.984808 0
    outer loop
      vertex 3.69841 -3.69841 0
      vertex 4.59627 -3.85672 5
      vertex 3.69841 -3.69841 5
    endloop
  endfacet
  facet normal -0.173648 -0.984808 -0
    outer loop
      vertex 4.59627 -3.85672 5
      vertex 3.69841 -3.69841 0
      vertex 4.59627 -3.85672 0
    endloop
  endfacet
  facet normal -0.173648 -0.984808 0
    outer loop
      vertex -5.63815 -2.05212 0
      vertex -4.7403 -2.21044 5
      vertex -5.63815 -2.05212 5
    endloop
  endfacet
  facet normal -0.173648 -0.984808 -0
    outer loop
      vertex -4.7403 -2.21044 5
      vertex -5.63815 -2.05212 0
      vertex -4.7403 -2.21044 0
    endloop
  endfacet
  facet normal -0.766045 0.642787 0
    outer loop
      vertex 0.455854 5.21044 0
      vertex 1.04189 5.90885 5
      vertex 1.04189 5.90885 0
    endloop
  endfacet
  facet normal -0.766045 0.642787 0
    outer loop
      vertex 1.04189 5.90885 5
      vertex 0.455854 5.21044 0
      vertex 0.455854 5.21044 5
    endloop
  endfacet
  facet normal -0.766045 0.642788 0
    outer loop
      vertex -5.63815 -2.05212 0
      vertex -5.05212 -1.35371 5
      vertex -5.05212 -1.35371 0
    endloop
  endfacet
  facet normal -0.766045 0.642788 0
    outer loop
      vertex -5.05212 -1.35371 5
      vertex -5.63815 -2.05212 0
      vertex -5.63815 -2.05212 5
    endloop
  endfacet
  facet normal 0.939693 0.34202 0
    outer loop
      vertex 1.35371 5.05212 5
      vertex 1.04189 5.90885 0
      vertex 1.04189 5.90885 5
    endloop
  endfacet
  facet normal 0.939693 0.34202 0
    outer loop
      vertex 1.04189 5.90885 0
      vertex 1.35371 5.05212 5
      vertex 1.35371 5.05212 0
    endloop
  endfacet
  facet normal 0.939693 0.34202 0
    outer loop
      vertex 4.59627 -3.85672 5
      vertex 4.28444 -3 0
      vertex 4.28444 -3 5
    endloop
  endfacet
  facet normal 0.939693 0.34202 0
    outer loop
      vertex 4.28444 -3 0
      vertex 4.59627 -3.85672 5
      vertex 4.59627 -3.85672 0
    endloop
  endfacet
  facet normal -0.866025 0.5 0
    outer loop
      vertex -0.455854 5.21044 0
      vertex 0 6 5
      vertex 0 6 0
    endloop
  endfacet
  facet normal -0.866025 0.5 0
    outer loop
      vertex 0 6 5
      vertex -0.455854 5.21044 0
      vertex -0.455854 5.21044 5
    endloop
  endfacet
  facet normal -0.866025 0.5 0
    outer loop
      vertex -5.19615 -3 0
      vertex -4.7403 -2.21044 5
      vertex -4.7403 -2.21044 0
    endloop
  endfacet
  facet normal -0.866025 0.5 0
    outer loop
      vertex -4.7403 -2.21044 5
      vertex -5.19615 -3 0
      vertex -5.19615 -3 5
    endloop
  endfacet
  facet normal 0.866025 0.5 0
    outer loop
      vertex 0.455854 5.21044 5
      vertex 0 6 0
      vertex 0 6 5
    endloop
  endfacet
  facet normal 0.866025 0.5 0
    outer loop
      vertex 0 6 0
      vertex 0.455854 5.21044 5
      vertex 0.455854 5.21044 0
    endloop
  endfacet
  facet normal 0.866025 0.5 0
    outer loop
      vertex 5.19615 -3 5
      vertex 4.7403 -2.21044 0
      vertex 4.7403 -2.21044 5
    endloop
  endfacet
  facet normal 0.866025 0.5 0
    outer loop
      vertex 4.7403 -2.21044 0
      vertex 5.19615 -3 5
      vertex 5.19615 -3 0
    endloop
  endfacet
  facet normal 0.173648 -0.984808 0
    outer loop
      vertex 4.7403 -2.21044 0
      vertex 5.63815 -2.05212 5
      vertex 4.7403 -2.21044 5
    endloop
  endfacet
  facet normal 0.173648 -0.984808 0
    outer loop
      vertex 5.63815 -2.05212 5
      vertex 4.7403 -2.21044 0
      vertex 5.63815 -2.05212 0
    endloop
  endfacet
  facet normal 0.173648 -0.984808 0
    outer loop
      vertex -4.59627 -3.85672 0
      vertex -3.69841 -3.69841 5
      vertex -4.59627 -3.85672 5
    endloop
  endfacet
  facet normal 0.173648 -0.984808 0
    outer loop
      vertex -3.69841 -3.69841 5
      vertex -4.59627 -3.85672 0
      vertex -3.69841 -3.69841 0
    endloop
  endfacet
  facet normal -0.939693 0.34202 0
    outer loop
      vertex -1.35371 5.05212 0
      vertex -1.04189 5.90885 5
      vertex -1.04189 5.90885 0
    endloop
  endfacet
  facet normal -0.939693 0.34202 0
    outer loop
      vertex -1.04189 5.90885 5
      vertex -1.35371 5.05212 0
      vertex -1.35371 5.05212 5
    endloop
  endfacet
  facet normal -0.939693 0.34202 0
    outer loop
      vertex -4.59627 -3.85672 0
      vertex -4.28444 -3 5
      vertex -4.28444 -3 0
    endloop
  endfacet
  facet normal -0.939693 0.34202 0
    outer loop
      vertex -4.28444 -3 5
      vertex -4.59627 -3.85672 0
      vertex -4.59627 -3.85672 5
    endloop
  endfacet
  facet normal 0.766044 0.642788 0
    outer loop
      vertex -0.455854 5.21044 5
      vertex -1.04189 5.90885 0
      vertex -1.04189 5.90885 5
    endloop
  endfacet
  facet normal 0.766044 0.642788 0
    outer loop
      vertex -1.04189 5.90885 0
      vertex -0.455854 5.21044 5
      vertex -0.455854 5.21044 0
    endloop
  endfacet
  facet normal 0.766045 0.642788 0
    outer loop
      vertex 5.63815 -2.05212 5
      vertex 5.05212 -1.35371 0
      vertex 5.05212 -1.35371 5
    endloop
  endfacet
  facet normal 0.766045 0.642788 0
    outer loop
      vertex 5.05212 -1.35371 0
      vertex 5.63815 -2.05212 5
      vertex 5.63815 -2.05212 0
    endloop
  endfacet
  facet normal 0.34202 -0.939693 0
    outer loop
      vertex 5.05212 -1.35371 0
      vertex 5.90885 -1.04189 5
      vertex 5.05212 -1.35371 5
    endloop
  endfacet
  facet normal 0.34202 -0.939693 0
    outer loop
      vertex 5.90885 -1.04189 5
      vertex 5.05212 -1.35371 0
      vertex 5.90885 -1.04189 0
    endloop
  endfacet
  facet normal 0.34202 -0.939693 0
    outer loop
      vertex -3.85672 -4.59627 0
      vertex -3 -4.28444 5
      vertex -3.85672 -4.59627 5
    endloop
  endfacet
  facet normal 0.34202 -0.939693 0
    outer loop
      vertex -3 -4.28444 5
      vertex -3.85672 -4.59627 0
      vertex -3 -4.28444 0
    endloop
  endfacet
  facet normal -0.984808 0.173648 0
    outer loop
      vertex -2.21044 4.7403 0
      vertex -2.05212 5.63815 5
      vertex -2.05212 5.63815 0
    endloop
  endfacet
  facet normal -0.984808 0.173648 0
    outer loop
      vertex -2.05212 5.63815 5
      vertex -2.21044 4.7403 0
      vertex -2.21044 4.7403 5
    endloop
  endfacet
  facet normal -0.984808 0.173648 0
    outer loop
      vertex -3.85672 -4.59627 0
      vertex -3.69841 -3.69841 5
      vertex -3.69841 -3.69841 0
    endloop
  endfacet
  facet normal -0.984808 0.173648 0
    outer loop
      vertex -3.69841 -3.69841 5
      vertex -3.85672 -4.59627 0
      vertex -3.85672 -4.59627 5
    endloop
  endfacet
  facet normal 0.642788 0.766045 -0
    outer loop
      vertex -1.35371 5.05212 0
      vertex -2.05212 5.63815 5
      vertex -1.35371 5.05212 5
    endloop
  endfacet
  facet normal 0.642788 0.766045 0
    outer loop
      vertex -2.05212 5.63815 5
      vertex -1.35371 5.05212 0
      vertex -2.05212 5.63815 0
    endloop
  endfacet
  facet normal 0.642787 0.766045 -0
    outer loop
      vertex 5.90885 -1.04189 0
      vertex 5.21044 -0.455854 5
      vertex 5.90885 -1.04189 5
    endloop
  endfacet
  facet normal 0.642787 0.766045 0
    outer loop
      vertex 5.21044 -0.455854 5
      vertex 5.90885 -1.04189 0
      vertex 5.21044 -0.455854 0
    endloop
  endfacet
  facet normal 0.5 -0.866025 0
    outer loop
      vertex 5.21044 -0.455854 0
      vertex 6 0 5
      vertex 5.21044 -0.455854 5
    endloop
  endfacet
  facet normal 0.5 -0.866025 0
    outer loop
      vertex 6 0 5
      vertex 5.21044 -0.455854 0
      vertex 6 0 0
    endloop
  endfacet
  facet normal 0.5 -0.866025 0
    outer loop
      vertex -3 -5.19615 0
      vertex -2.21044 -4.7403 5
      vertex -3 -5.19615 5
    endloop
  endfacet
  facet normal 0.5 -0.866025 0
    outer loop
      vertex -2.21044 -4.7403 5
      vertex -3 -5.19615 0
      vertex -2.21044 -4.7403 0
    endloop
  endfacet
  facet normal -1 0 0
    outer loop
      vertex -3 4.28444 0
      vertex -3 5.19615 5
      vertex -3 5.19615 0
    endloop
  endfacet
  facet normal -1 -0 0
    outer loop
      vertex -3 5.19615 5
      vertex -3 4.28444 0
      vertex -3 4.28444 5
    endloop
  endfacet
  facet normal -1 0 0
    outer loop
      vertex -3 -5.19615 0
      vertex -3 -4.28444 5
      vertex -3 -4.28444 0
    endloop
  endfacet
  facet normal -1 -0 0
    outer loop
      vertex -3 -4.28444 5
      vertex -3 -5.19615 0
      vertex -3 -5.19615 5
    endloop
  endfacet
  facet normal 0.5 0.866025 -0
    outer loop
      vertex -2.21044 4.7403 0
      vertex -3 5.19615 5
      vertex -2.21044 4.7403 5
    endloop
  endfacet
  facet normal 0.5 0.866025 0
    outer loop
      vertex -3 5.19615 5
      vertex -2.21044 4.7403 0
      vertex -3 5.19615 0
    endloop
  endfacet
  facet normal 0.5 0.866025 -0
    outer loop
      vertex 6 0 0
      vertex 5.21044 0.455854 5
      vertex 6 0 5
    endloop
  endfacet
  facet normal 0.5 0.866025 0
    outer loop
      vertex 5.21044 0.455854 5
      vertex 6 0 0
      vertex 5.21044 0.455854 0
    endloop
  endfacet
  facet normal -0.866025 -0.5 0
    outer loop
      vertex 0 -6 0
      vertex -0.455854 -5.21044 5
      vertex -0.455854 -5.21044 0
    endloop
  endfacet
  facet normal -0.866025 -0.5 0
    outer loop
      vertex -0.455854 -5.21044 5
      vertex 0 -6 0
      vertex 0 -6 5
    endloop
  endfacet
  facet normal -0.866025 -0.5 0
    outer loop
      vertex -4.7403 2.21044 0
      vertex -5.19615 3 5
      vertex -5.19615 3 0
    endloop
  endfacet
  facet normal -0.866025 -0.5 0
    outer loop
      vertex -5.19615 3 5
      vertex -4.7403 2.21044 0
      vertex -4.7403 2.21044 5
    endloop
  endfacet
  facet normal 0 -1 0
    outer loop
      vertex 4.28444 -3 0
      vertex 5.19615 -3 5
      vertex 4.28444 -3 5
    endloop
  endfacet
  facet normal 0 -1 -0
    outer loop
      vertex 5.19615 -3 5
      vertex 4.28444 -3 0
      vertex 5.19615 -3 0
    endloop
  endfacet
  facet normal 0 -1 0
    outer loop
      vertex -5.19615 -3 0
      vertex -4.28444 -3 5
      vertex -5.19615 -3 5
    endloop
  endfacet
  facet normal 0 -1 -0
    outer loop
      vertex -4.28444 -3 5
      vertex -5.19615 -3 0
      vertex -4.28444 -3 0
    endloop
  endfacet
  facet normal 1 -0 0
    outer loop
      vertex 3 4.28444 5
      vertex 3 5.19615 0
      vertex 3 5.19615 5
    endloop
  endfacet
  facet normal 1 0 0
    outer loop
      vertex 3 5.19615 0
      vertex 3 4.28444 5
      vertex 3 4.28444 0
    endloop
  endfacet
  facet normal 1 -0 0
    outer loop
      vertex 3 -5.19615 5
      vertex 3 -4.28444 0
      vertex 3 -4.28444 5
    endloop
  endfacet
  facet normal 1 0 0
    outer loop
      vertex 3 -4.28444 0
      vertex 3 -5.19615 5
      vertex 3 -5.19615 0
    endloop
  endfacet
  facet normal -0.866025 -0.5 0
    outer loop
      vertex 4.7 0 0
      vertex 2.35 4.07032 5
      vertex 2.35 4.07032 0
    endloop
  endfacet
  facet normal -0.866025 -0.5 0
    outer loop
      vertex 2.35 4.07032 5
      vertex 4.7 0 0
      vertex 4.7 0 5
    endloop
  endfacet
  facet normal 0.866025 -0.5 0
    outer loop
      vertex -4.7 0 5
      vertex -2.35 4.07032 0
      vertex -2.35 4.07032 5
    endloop
  endfacet
  facet normal 0.866025 -0.5 0
    outer loop
      vertex -2.35 4.07032 0
      vertex -4.7 0 5
      vertex -4.7 0 0
    endloop
  endfacet
  facet normal 0 -1 0
    outer loop
      vertex -2.35 4.07032 0
      vertex 2.35 4.07032 5
      vertex -2.35 4.07032 5
    endloop
  endfacet
  facet normal 0 -1 -0
    outer loop
      vertex 2.35 4.07032 5
      vertex -2.35 4.07032 0
      vertex 2.35 4.07032 0
    endloop
  endfacet
  facet normal 0.866025 0.5 0
    outer loop
      vertex -2.35 -4.07032 5
      vertex -4.7 0 0
      vertex -4.7 0 5
    endloop
  endfacet
  facet normal 0.866025 0.5 0
    outer loop
      vertex -4.7 0 0
      vertex -2.35 -4.07032 5
      vertex -2.35 -4.07032 0
    endloop
  endfacet
  facet normal 0 1 -0
    outer loop
      vertex 2.35 -4.07032 0
      vertex -2.35 -4.07032 5
      vertex 2.35 -4.07032 5
    endloop
  endfacet
  facet normal 0 1 0
    outer loop
      vertex -2.35 -4.07032 5
      vertex 2.35 -4.07032 0
      vertex -2.35 -4.07032 0
    endloop
  endfacet
  facet normal -0.866025 0.5 0
    outer loop
      vertex 2.35 -4.07032 0
      vertex 4.7 0 5
      vertex 4.7 0 0
    endloop
  endfacet
  facet normal -0.866025 0.5 0
    outer loop
      vertex 4.7 0 5
      vertex 2.35 -4.07032 0
      vertex 2.35 -4.07032 5
    endloop
  endfacet
endsolid OpenSCAD_Model
